PathFileType	4	(X/Y/Z)	C:\Users\°ÂÌØÂü\Desktop\20210112\bx_y_10_1802-Unnamed.trc
DataRate	CameraRate	NumFrames	NumMarkers	Units	OrigDataRate	OrigDataStartFrame	OrigNumFrames
50.00	50.00	       8	0	mm	50.00	245	       652
Frame#	Time	
		

245	4.880	-658.41388	-9.96655	825.32794	-739.18176	-66.77213	874.48773	-711.01715	154.07619	216.11618	-710.32184	251.84726	579.36591	-517.69922	-72.29114	143.02473	-613.38348	84.78104	1402.64136	-640.85547	218.10712	840.26733	-753.79926	260.72061	502.94550	-663.76355	14.32403	522.29987	-713.32306	-27.43986	618.82599	-666.93451	-69.00105	161.22723	-719.34344	283.35928	753.60785	-625.71106	-80.84539	158.30193	-882.63641	296.19785	144.62160	-716.91302	-24.09909	568.47217	-603.43750	16.67404	168.28130	-560.57220	-41.83370	162.16203	-595.09467	222.51601	173.25511	-666.86951	299.67212	159.26480	-629.60583	307.26331	161.44801	-560.46967	260.71417	163.96519	-528.31927	304.03622	146.28537	-640.91199	96.69981	1833.45837	-648.39941	272.14029	1527.10852	-692.07141	289.97244	887.75128	-714.03229	76.99629	215.84418	-796.80536	174.27048	185.61810	-771.09332	224.39055	203.91664	-674.37189	53.56193	158.37375	-768.78735	-3.87308	207.70703	-793.12781	58.68579	176.74371	-656.62561	209.08354	535.67108	-765.69098	-30.89000	489.59384	-876.10980	-78.86684	141.15924	-676.10992	174.49797	157.44490	-719.02081	255.86781	637.66998				-743.19141	-46.29564	718.08270	-683.52118	80.20992	584.34265	-668.18713	-83.44739	1529.91113	-892.77649	119.66169	1044.34961	-673.42010	150.40858	586.56537	
246	4.900	-657.80603	-10.66320	824.60919	-737.74658	-67.23901	874.78925	-711.51123	153.75359	216.28905	-713.85229	250.60442	579.86719	-517.84418	-72.17625	143.01791	-615.99994	84.54044	1406.81360	-639.96783	217.11388	839.79291	-757.19348	259.67987	503.17380	-666.90833	15.21072	522.29144	-716.31744	-26.52343	618.91394	-666.91833	-68.94638	161.35367	-719.92798	282.31827	754.42517	-625.59515	-80.91102	158.27533	-882.54846	295.94385	144.48776	-720.17853	-23.46670	569.01019	-603.20337	16.71250	168.42461	-560.39801	-41.74640	162.22548	-594.96460	222.52322	173.23318	-666.86517	299.41351	159.42998	-629.52240	307.13837	161.45378	-560.48395	260.78928	163.90588	-528.31982	304.11014	146.25334	-647.48981	96.63894	1837.19287	-653.35663	271.82529	1530.56934	-690.34125	288.99829	888.43854	-714.30682	76.86723	215.81047	-796.77100	174.31596	185.69902	-771.13678	224.39201	204.00868	-674.53442	53.33534	158.50749	-768.99792	-4.08485	207.61674	-793.18085	58.62260	176.58176	-660.40656	208.06897	536.44214	-768.21075	-30.50196	489.25900	-876.03320	-78.59757	141.50241	-676.10992	174.49797	157.44490	-722.51044	255.41725	638.50946							-687.24945	80.92520	584.86243	-673.47815	-84.24619	1534.04126	-889.58411	118.80592	1045.29541	-677.50800	149.00700	586.70135	
247	4.920	-656.74359	-11.60187	823.56067	-736.52252	-67.63348	874.68793	-711.79010	153.78110	216.75409	-718.14520	249.51108	580.13434	-517.43677	-72.25618	143.19524	-618.64777	84.01740	1410.23169	-639.38837	215.23624	838.41101	-760.66614	259.21005	503.79379	-669.65594	15.73885	523.51282	-719.58868	-26.62642	618.71722	-666.98566	-69.17353	161.35402	-720.90289	281.27383	754.91376	-625.62256	-80.89178	158.25018	-882.66003	296.11053	144.51537	-722.95551	-23.77479	569.99786	-603.02448	16.58102	168.50630	-560.41998	-41.88254	162.20871	-595.04138	222.40533	173.12659	-666.81696	299.34418	159.73465	-629.42389	307.02609	161.53531	-560.56061	260.66837	164.15785	-528.23438	304.29904	146.37511	-653.85840	96.21219	1840.55261	-658.44690	270.91699	1533.59265	-688.49469	287.98138	889.09027	-714.69519	76.87818	216.21730	-796.80621	174.34128	185.54228	-771.43488	224.23557	203.97696	-674.44989	53.45837	158.55693	-769.22748	-3.88104	207.47922	-793.63934	58.48304	176.63808	-664.28754	206.87840	537.11334	-770.71057	-30.11073	489.44641	-876.03320	-78.59757	141.50241	-676.11902	174.47270	157.70837	-726.00189	254.41417	638.99786							-689.50439	81.25589	584.80530	-678.32697	-84.79593	1537.38098	-886.94830	117.93859	1046.01660	-681.38477	147.76892	586.93280	
248	4.940	-656.04266	-12.55033	822.72119	-735.16522	-67.84408	874.61816	-712.18225	153.47697	216.75894	-722.62018	248.56593	580.18579	-517.61438	-72.28796	142.97162	-620.69257	83.04954	1413.66077	-639.09052	214.03043	837.51434	-764.44745	258.10419	503.21945	-672.17328	15.66075	524.25684	-722.56061	-26.34416	618.92517	-666.85931	-69.06824	161.10631	-721.61566	280.12723	754.64893	-625.53265	-80.94716	158.29805	-882.70941	296.17542	144.57637	-724.96759	-23.66734	570.91125	-603.23535	16.47702	168.53140	-560.36517	-41.87959	162.28279	-595.14032	222.55540	173.15039	-666.76434	299.31485	159.60985	-629.47412	307.13617	161.48640	-560.59174	260.37579	164.15271	-528.18701	304.06042	146.27979	-660.23352	96.05907	1843.21863	-663.78729	269.98877	1535.82373	-687.17303	286.49887	888.91217	-715.02472	76.75890	216.22656	-797.26508	174.27052	185.59402	-771.51709	224.09631	203.79858	-674.63708	53.39721	158.91574	-769.50574	-3.68521	207.32608	-793.64398	58.42129	176.62456	-668.28430	206.36926	537.80066	-773.19867	-30.23708	489.55640	-876.03320	-78.59757	141.50241	-676.11517	174.49106	157.67453	-729.47418	253.93491	639.29077	-746.71082	-43.47115	719.23407				-692.79315	81.43183	585.00549	-683.04285	-85.10448	1540.41211	-883.91522	116.64924	1046.87585	-686.06952	147.36821	586.79993	
249	4.960	-654.63104	-13.05075	821.52429	-733.10583	-69.10360	874.79590	-712.75214	153.71078	216.77409	-726.42157	248.18170	580.95001	-517.80414	-72.10371	142.92760	-623.28003	82.85790	1416.49963				-767.78192	257.43973	503.47501	-674.81403	15.76337	524.36566	-724.74420	-26.40846	619.06067	-666.78156	-69.25703	161.02736	-723.10101	279.72495	755.51300	-625.48804	-80.99684	158.33832	-882.64417	295.99124	144.52492	-730.17688	-22.19877	568.53790	-603.29279	16.59090	168.61049	-560.42010	-41.90577	162.23375	-595.29688	222.44551	173.24167	-666.92334	299.27597	159.58369	-629.60303	306.95377	161.72980	-560.70264	260.41245	164.06287	-528.20618	304.30499	146.33714	-666.80109	95.36545	1845.59204	-668.65967	269.38052	1538.66199				-715.01202	76.64900	216.39040	-797.34027	174.31511	185.34398	-771.98871	224.10278	204.13458	-674.68817	53.35582	159.09259	-769.27252	-3.94692	207.01617	-793.73779	58.49252	176.54657	-671.37067	205.30235	539.02716	-775.54712	-29.91692	489.45752	-876.05151	-78.64049	141.43311	-676.28113	174.65572	158.06180	-732.89539	252.93520	639.44073	-747.52521	-43.88471	719.19183	-639.47375	212.66974	835.73547	-695.62512	81.66051	584.88892	-687.35138	-85.67418	1543.19653	-881.46631	115.24963	1047.07764	-689.93164	146.37857	587.02130	
250	4.980	-653.95331	-13.94907	820.52014	-730.98401	-69.50061	874.56451	-713.11151	153.80396	217.50935	-730.31049	246.89996	581.02161	-517.57892	-72.19544	143.39511	-625.98114	81.93304	1418.91797	-662.90039	210.59692	1073.15930	-770.95142	256.70587	503.57397	-677.21613	16.06229	524.60370	-726.94690	-26.98380	619.18365	-666.84430	-69.13758	161.01361	-723.95148	278.66510	755.55090	-625.59515	-80.91102	158.27533	-882.58575	296.13757	144.56622	-731.69391	-22.51428	569.58478	-603.17920	16.51148	168.62358	-560.32758	-41.92982	162.26607	-595.51923	222.66447	173.12543	-666.84296	299.43124	159.47354	-629.58063	307.01813	161.73334	-560.83789	260.33453	164.15877	-528.24139	304.17792	146.49892	-673.26752	94.96940	1847.77576	-673.90692	268.91486	1540.80603	-684.68585	284.65604	889.36615	-715.28937	76.00185	216.59927	-797.46539	174.16313	185.21037	-772.09332	224.06500	203.94574	-674.80902	53.35180	159.21381	-769.54755	-3.83942	206.84726	-793.77112	58.30751	176.54950	-675.74817	204.73569	539.46783	-777.06421	-29.67114	488.92120	-876.13251	-78.56548	141.43300	-676.24695	174.71703	158.14247	-735.99902	252.27121	639.83685	-747.63550	-44.14801	718.72290	-638.99451	211.69005	835.49023	-698.26788	81.38472	585.00452	-691.46399	-85.77884	1545.31433	-878.36560	113.60697	1047.33032	-693.85541	145.48180	586.97070	
251	5.000	-653.28802	-14.28697	819.79218	-729.18011	-70.54794	874.90741	-713.08704	153.67943	217.65367	-733.79584	246.12015	580.87982	-518.04919	-72.39595	142.87663	-627.89752	81.15894	1421.85962	-661.58276	209.69864	1074.91211	-774.57288	256.39133	503.55545	-680.01776	15.98932	524.77185	-728.43103	-27.68636	619.59631	-666.88623	-69.36217	160.94341	-725.00598	278.30548	755.48492	-625.59515	-80.91102	158.27533	-882.57648	296.07275	144.58041	-734.31927	-23.19009	570.04486	-603.31458	16.50872	168.60632	-560.50153	-41.91809	162.26370	-595.70526	222.64006	173.09741	-666.94373	299.36505	159.49677	-629.54535	306.99515	161.55568	-560.95258	260.41296	164.03325	-528.19397	304.31708	146.31877	-679.29041	94.50562	1849.34583	-679.24915	267.71896	1542.23157	-684.01929	284.40961	889.43829	-716.13208	75.70167	216.60887	-797.17584	174.52379	184.49547	-772.37384	224.01970	203.96889	-674.87195	53.11319	159.30165	-769.54236	-4.09221	206.58794	-793.42352	58.26564	175.99736	-679.09503	203.69623	539.85004	-779.34650	-29.94965	488.94873	-876.13251	-78.56548	141.43300	-676.22888	174.82753	158.25806	-738.66425	251.80675	640.12122	-749.85657	-46.66718	719.17548	-638.95624	211.18130	833.86530	-700.85040	81.11211	584.70264	-696.03656	-86.57290	1547.45752	-876.27228	111.90611	1047.45276	-697.46588	144.38908	587.10834	
252	5.020	-652.41168	-14.79022	818.78339	-726.88031	-71.14334	874.32312	-713.90143	153.81963	217.74051	-737.55481	245.45921	581.04364	-517.91260	-72.46497	143.10431	-630.71710	80.72152	1423.89441				-777.16248	255.37137	503.17371	-681.47809	15.64093	525.17761	-731.72760	-27.01510	618.41479	-667.05786	-69.65602	160.60262	-726.14282	277.38583	755.28754	-625.58484	-81.07961	158.17450	-882.58575	296.13757	144.56622	-736.33160	-23.25474	569.82788	-603.27753	16.45056	168.83398	-560.58069	-41.90815	162.45703	-595.95721	222.83484	173.33449	-667.00104	299.34995	159.62968	-629.50543	307.15970	161.39006	-560.92932	260.31143	164.27971	-528.23389	304.22513	146.40715	-685.04816	94.04385	1850.73767	-684.29596	267.43549	1543.92261	-683.55194	282.92346	888.69287	-716.22607	75.72115	216.82199	-797.36444	174.63872	184.60699	-772.48822	223.96129	203.85864	-674.87195	53.11319	159.30165	-770.25830	-4.03173	206.06216	-793.45361	57.84859	175.85330	-682.16235	203.50446	540.11664	-781.56818	-30.38531	489.21524	-876.05151	-78.64049	141.43311	-676.22888	174.82753	158.25806	-741.80688	251.08318	640.33447	-749.64911	-47.18913	719.43854	-638.90265	210.90102	832.69244	-703.11127	80.64725	584.75470	-700.03284	-87.35908	1549.30005	-873.50494	109.51382	1047.43518	-701.06055	144.06728	586.34430	-678.43640	-19.92441	1061.03845	
